<?xml version="1.0" standalone="no"?>
<!DOCTYPE svg PUBLIC "-//W3C//DTD SVG 20010904//EN"
 "http://www.w3.org/TR/2001/REC-SVG-20010904/DTD/svg10.dtd">
<svg version="1.0" xmlns="http://www.w3.org/2000/svg"
 width="512.000000pt" height="512.000000pt" viewBox="0 0 512.000000 512.000000"
 preserveAspectRatio="xMidYMid meet">
<metadata>
Created by potrace 1.11, written by Peter Selinger 2001-2013
</metadata>
<g transform="translate(0.000000,512.000000) scale(0.100000,-0.100000)"
fill="#000000" stroke="none">
<path d="M1188 4945 c-2 -2 -19 -5 -38 -8 -243 -33 -449 -242 -484 -492 -4
-22 -8 -51 -11 -65 -2 -14 -7 -47 -10 -75 -3 -27 -10 -75 -15 -105 -12 -70
-17 -104 -24 -160 -3 -25 -8 -56 -11 -69 -2 -12 -7 -43 -9 -67 -3 -24 -10 -72
-15 -106 -6 -35 -13 -83 -16 -108 -7 -54 -34 -235 -40 -270 -2 -14 -7 -45 -10
-70 -3 -25 -8 -56 -10 -70 -2 -14 -7 -45 -10 -70 -3 -25 -12 -85 -20 -135 -20
-131 -23 -155 -30 -210 -3 -27 -10 -72 -15 -100 -5 -27 -12 -72 -15 -98 -4
-27 -8 -56 -10 -65 -1 -10 -6 -39 -9 -67 -7 -52 -14 -102 -21 -145 -18 -116
-25 -162 -30 -205 -3 -27 -10 -72 -15 -100 -5 -27 -12 -74 -15 -104 -4 -30 -9
-63 -11 -75 -2 -11 -6 -38 -9 -61 -4 -22 -8 -51 -10 -65 -46 -285 -59 -398
-59 -510 0 -114 2 -131 28 -195 39 -96 86 -164 158 -229 74 -68 192 -128 278
-141 19 -3 46 -7 60 -10 14 -2 45 -7 70 -10 25 -3 74 -11 110 -16 36 -6 81
-13 100 -15 19 -2 51 -7 70 -9 19 -3 80 -12 135 -20 55 -9 116 -18 135 -20 19
-3 80 -12 135 -20 112 -16 506 -74 545 -80 14 -2 45 -6 70 -10 25 -4 56 -8 70
-10 14 -3 45 -7 69 -10 23 -3 55 -7 70 -9 24 -5 72 -11 138 -21 42 -6 105 -15
133 -20 14 -3 48 -7 75 -11 28 -3 57 -8 67 -9 9 -2 38 -6 65 -10 26 -4 59 -9
73 -11 14 -2 45 -6 70 -10 25 -3 56 -7 70 -10 14 -2 86 -13 160 -24 163 -23
199 -28 270 -40 30 -5 80 -12 110 -15 30 -3 62 -8 70 -10 8 -3 33 -7 55 -9 22
-3 58 -8 80 -12 209 -33 392 22 531 161 68 68 134 176 150 245 16 69 24 112
29 156 3 27 7 60 10 74 2 14 7 45 10 70 3 25 10 70 15 100 5 30 11 73 14 95 4
34 23 161 41 285 5 32 16 105 30 205 3 22 7 49 10 60 2 11 7 47 11 80 3 33 8
63 10 66 2 3 6 33 9 65 4 32 8 66 10 74 2 8 7 38 11 65 3 28 8 59 10 70 3 11
7 40 10 65 3 25 7 56 9 70 2 14 18 120 35 235 32 221 38 265 45 305 2 14 9 61
15 105 6 44 13 91 15 105 2 14 7 45 10 70 6 41 20 140 30 200 6 35 15 101 21
146 2 22 9 66 14 99 5 33 12 78 15 100 3 22 11 69 18 105 6 36 12 121 12 190
-1 105 -4 134 -23 181 -36 91 -136 210 -216 256 -83 48 -164 78 -236 88 -25 3
-56 8 -70 10 -14 3 -106 16 -205 30 -99 14 -191 28 -204 30 -21 4 -86 13 -280
41 -19 2 -43 6 -55 9 -12 2 -43 7 -71 10 -27 3 -75 10 -105 15 -30 5 -77 12
-105 15 -27 3 -72 10 -100 15 -27 5 -72 12 -100 15 -57 7 -421 68 -540 91 -44
8 -98 17 -120 20 -22 3 -56 9 -75 14 -19 5 -75 16 -125 24 -49 9 -101 18 -115
21 -32 7 -318 56 -345 60 -11 2 -76 12 -145 23 -69 12 -150 24 -180 28 -76 9
-90 11 -130 19 -38 7 -167 14 -172 10z"/>
</g>
</svg>
